<?xml version="1.0" encoding="utf-8"?>
<!-- Generator: Adobe Illustrator 16.0.0, SVG Export Plug-In . SVG Version: 6.00 Build 0)  -->
<!DOCTYPE svg PUBLIC "-//W3C//DTD SVG 1.1//EN" "http://www.w3.org/Graphics/SVG/1.1/DTD/svg11.dtd">
<svg 
	version="1.1" id="Layer_1" xmlns="http://www.w3.org/2000/svg" xmlns:xlink="http://www.w3.org/1999/xlink" x="0px" y="0px"
	 width="150px" height="150px" viewBox="0 0 150 150" enable-background="new 0 0 150 150" xml:space="preserve">
		<g>
			<g>
				<ellipse opacity="100" fill="#00B6FF" enable-background="new" stroke="white" stroke-miterlimit="10" stroke-dasharray= "30" cx="75" cy="75" rx="67.164" ry="66.715">
		                            
			        <animateTransform  
			        	type="rotate" 
			        	fill="remove" 
			        	accumulate="none" 
			        	additive="replace" 
			        	calcMode="linear" 
			        	attributeName="transform" 
			        	dur="10s" 
			        	restart="always" 
			        	to="360 75 75" 
			        	from="0 75 75" 
			        	repeatCount="indefinite" 
			        	attributeType="XML">
			        </animateTransform>
		    </ellipse>
				<path fill="#36A9E1" d="M120.193,75.111c0,23.205-19.989,42.019-44.648,42.019c-24.67,0-44.653-18.815-44.653-42.019
					c0-23.211,19.993-42.028,44.653-42.028C100.213,33.083,120.193,51.896,120.193,75.111z"/>
			</g>
			<g>
				<path fill="#FFFFFF" d="M120.421,102.316c-8.491,0-83.978,0-91.443,0c-7.468,0-6.443,11.993,0,11.993c2.112,0,11.936,0,24.417,0
					c-0.481,3.217,1.063,6.916,4.662,6.916c7.45,0,22.508,0,31.136,0c3.91,0,5.294-3.697,4.681-6.916c13.37,0,24.14,0,26.548,0
					C127.431,114.31,128.908,102.316,120.421,102.316z">
					<animate
			            attributeName="fill"
			            attributeType="XML"
			            from="black" 
			            to="white" 
			            begin=".1" 
			            dur="1s"
			            repeatCount="indefinite"/>
				</path>
				<path fill="#FFFFFF" d="M75,25.471c4.73,0,8.556,4.221,8.556,9.432c0,5.208-3.827,9.43-8.556,9.43c-4.73,0-8.557-4.222-8.557-9.43
					C66.443,29.692,70.27,25.471,75,25.471z		">
					<animate
			            attributeName="fill"
			            attributeType="XML"
			            from="black" 
			            to="white" 
			            begin=".4" 
			            dur="3s"
			            repeatCount="indefinite"/>
				</path>
				<path fill="#FFFFFF" d="M59.392,67.241c7.457,0,22.518,0,31.143,0c6.944,0,5.885-11.612,0-11.612c-7.537,0-22.181,0-31.143,0
					C53.116,55.633,53.013,67.241,59.392,67.241z		">
					<animate
			            attributeName="fill"
			            attributeType="XML"
			            from="black" 
			            to="white" 
			            begin=".3" 
			            dur="3s"
			            repeatCount="indefinite"/>
				</path>
				<path fill="#FFFFFF" d="M44.539,91.152c3.8,0,55.607,0,61.243,0c7.534,0,7.534-12.56,0-12.56c-8.659,0-46.079,0-61.243,0
					C36.016,78.596,37.154,91.152,44.539,91.152z		">
					<animate
			            attributeName="fill"
			            attributeType="XML"
			            from="black" 
			            to="white" 
			            begin=".2" 
			            dur="3s"
			            repeatCount="indefinite"/>
				</path>
			</g>
		</g>
</svg>
