<?xml version="1.0" encoding="utf-8"?>
<!-- Generator: Adobe Illustrator 16.0.0, SVG Export Plug-In . SVG Version: 6.00 Build 0)  -->
<!DOCTYPE svg PUBLIC "-//W3C//DTD SVG 1.1//EN" "http://www.w3.org/Graphics/SVG/1.1/DTD/svg11.dtd">
<svg version="1.1" id="Layer_1" xmlns="http://www.w3.org/2000/svg" xmlns:xlink="http://www.w3.org/1999/xlink" x="0px" y="0px"
	 width="400px" height="400px" viewBox="0 0 400 400" enable-background="new 0 0 400 400" xml:space="preserve">
<g>
	<g>
		<path fill="#00B6FF" d="M199.996,3.679c109.781,0,198.777,87.688,198.777,195.846c0,108.177-88.996,195.862-198.777,195.862
			c-109.772,0-198.77-87.685-198.77-195.862C1.227,91.367,90.224,3.679,199.996,3.679z"/>
		<path fill="#36A9E1" d="M333.915,199.55c0,68.013-59.229,123.159-132.3,123.159c-73.095,0-132.311-55.15-132.311-123.159
			c0-68.035,59.241-123.19,132.311-123.19C274.714,76.36,333.915,131.502,333.915,199.55z"/>
	</g>
	<g>
		<path fill="#FFFFFF" d="M334.587,279.286c-25.153,0-248.837,0-270.955,0c-22.13,0-19.095,35.154,0,35.154
			c6.263,0,35.368,0,72.354,0c-1.426,9.424,3.147,20.269,13.81,20.269c22.08,0,66.692,0,92.263,0
			c11.59,0,15.683-10.834,13.871-20.269c39.615,0,71.53,0,78.658,0C355.359,314.44,359.74,279.286,334.587,279.286z		">
<animate  fill="remove" attributeName="fill" from="black" to="white" dur="1s" begin="overlay.mouseover+.1" end="overlay.mouseout+.1" repeatCount="indefinite" accumulate="none" additive="replace" calcMode="linear" restart="always">
				</animate>
		</path>
		<path fill="#FFFFFF" d="M199.999,54.049c14.014,0,25.357,12.375,25.357,27.646c0,15.266-11.344,27.639-25.357,27.639
			c-14.011,0-25.355-12.374-25.355-27.639C174.644,66.424,185.988,54.049,199.999,54.049z		">
<animate  fill="remove" attributeName="fill" from="black" to="white" dur="1s" begin="overlay.mouseover+.4" end="overlay.mouseout+.4" repeatCount="indefinite" accumulate="none" additive="replace" calcMode="linear" restart="always">
				</animate>
		</path>
		<path fill="#FFFFFF" d="M153.75,176.48c22.1,0,66.725,0,92.284,0c20.571,0,17.436-34.034,0-34.034c-22.333,0-65.725,0-92.284,0
			C135.155,142.456,134.85,176.48,153.75,176.48z		">
<animate  fill="remove" attributeName="fill" from="black" to="white" dur="1s" begin="overlay.mouseover+.3" end="overlay.mouseout+.3" repeatCount="indefinite" accumulate="none" additive="replace" calcMode="linear" restart="always">
				</animate>
		</path>
		<path fill="#FFFFFF" d="M109.743,246.566c11.263,0,164.77,0,181.471,0c22.323,0,22.323-36.809,0-36.809
			c-25.661,0-136.54,0-181.471,0C84.489,209.758,87.858,246.566,109.743,246.566z		">
<animate  fill="remove" attributeName="fill" from="black" to="white" dur="1s" begin="overlay.mouseover+.2" end="overlay.mouseout+.2" repeatCount="indefinite" accumulate="none" additive="replace" calcMode="linear" restart="always">
				</animate>
		</path>
	</g>
</g>
</svg>
