<?xml version="1.0" encoding="utf-8"?>
<!-- Generator: Adobe Illustrator 16.0.0, SVG Export Plug-In . SVG Version: 6.00 Build 0)  -->
<!DOCTYPE svg PUBLIC "-//W3C//DTD SVG 1.1//EN" "http://www.w3.org/Graphics/SVG/1.1/DTD/svg11.dtd">
<svg version="1.1" id="Layer_2" xmlns="http://www.w3.org/2000/svg" xmlns:xlink="http://www.w3.org/1999/xlink" x="0px" y="0px"
	 width="425px" height="425px" viewBox="0 0 425 425" enable-background="new 0 0 425 425" xml:space="preserve">
<g>
	<g>
		<g>
			<ellipse fill="#00B6FF" cx="212.5" cy="160.854" rx="75.82" ry="74.146"/>
			<path fill="#36A9E1" d="M260.55,160.49c0,24.134-21.55,43.695-48.104,43.695c-26.582,0-48.117-19.564-48.117-43.695
				c0-24.145,21.535-43.706,48.117-43.706C239.009,116.785,260.55,136.345,260.55,160.49z"/>
		</g>
		<g>
			<path fill="#FFFFFF" d="M266.725,192.013c-10.134,0-100.255,0-109.165,0c-8.916,0-7.692,12.911,0,12.911
				c2.519,0,14.244,0,29.146,0c-0.565,3.457,1.271,7.442,5.564,7.442c8.901,0,26.872,0,37.174,0c4.67,0,6.318-3.977,5.59-7.442
				c15.959,0,28.817,0,31.69,0C275.093,204.923,276.857,192.013,266.725,192.013z			">
			</path>
			<path fill="#FFFFFF" d="M212.5,109.343c5.646,0,10.216,4.546,10.216,10.153c0,5.603-4.569,10.148-10.216,10.148
				c-5.643,0-10.215-4.545-10.215-10.148C202.285,113.889,206.857,109.343,212.5,109.343z			">
			</path>
			<path fill="#FFFFFF" d="M193.865,154.265c8.903,0,26.881,0,37.18,0c8.287,0,7.023-12.498,0-12.498c-8.997,0-26.479,0-37.18,0
				C186.378,141.771,186.254,154.265,193.865,154.265z			">
			</path>
			<path fill="#FFFFFF" d="M176.137,180c4.537,0,66.383,0,73.112,0c8.995,0,8.995-13.519,0-13.519c-10.338,0-55.01,0-73.112,0
				C165.962,166.481,167.319,180,176.137,180z			">
			</path>
		</g>
	</g>
	<g>
		<g>
			<path fill="#00B6FF" d="M290.171,280.849c0.035-1.199,0.06-2.349,0.06-3.22c0-5.922-8.55-6.088-8.55-0.162
				c0,4.197,0,36.157,0,39.482c0,5.313,8.688,4.866,8.688,0c0-3.173,0-16.38,0-25.871c0-14.931,29.679-18.125,29.679,0
				c0,10.563,0,22.981,0,25.871c0,5.09,9.178,5.313,9.178,0c0-3.056,0-0.78,0-25.871
				C329.231,265.744,294.296,269.449,290.171,280.849z"/>
			<path fill="#00B6FF" d="M388.288,305.764c0,17.604,13.821,14.96,16.039,15.003c4.725-0.177,5.166-6.709-0.345-6.824
				c-5.165,0.115-6.111,1.259-6.6-11.489c0.029-7.718,0.073-23.588,0.073-23.588s2.199-0.072,6.894-0.072
				c4.687,0,5.34-6.754,0.111-6.754c-4.367,0-6.869-0.062-6.869-0.062s0-6.765,0-11.41c0-5.313-9.188-5.202-9.188-0.006
				c0,5.304,0.008,11.424,0.008,11.424s1.353-0.034-4.448-0.034c-5.811,0-5.592,6.84,0.065,6.84c4.798,0,4.25,0,4.25,0
				S388.288,297.834,388.288,305.764z"/>
			<g>
				<path fill="#00B6FF" d="M382.078,296.679c0-13.613-10.514-24.636-23.468-24.636c-12.956,0-23.472,11.017-23.472,24.636
					c0,13.598,13.146,24.184,24.515,24.217c6.029,0.03,14.882-1.045,18.672-6.793c3.486-4.186-0.448-10.465-5.138-4.937
					c-4.335,5.082-11.159,5.063-13.637,4.996c-7.035-0.208-14.28-5.399-15.778-13.409h37.938
					C381.944,299.416,382.078,298.054,382.078,296.679z M343.839,292.171c1.64-7.966,7.653-13.113,14.771-13.113
					c7.116,0,12.977,5.147,14.583,13.113H343.839z"/>
			</g>
		</g>
		<g>
			<g>
				<path fill="#00B6FF" d="M112.04,272.247c-6.331,0-12.051,2.785-16.179,7.282v-2.647c0-5.293-9.16-5.293-9.16,0v57.085
					c0,5.664,8.933,5.869,9.16,0v-20.351c4.13,4.493,9.848,7.272,16.179,7.272c12.521,0,22.688-10.885,22.688-24.33
					C134.731,283.139,124.561,272.247,112.04,272.247z M110.793,313.801c-8.238,0-14.934-7.777-14.934-17.417
					c0-9.62,6.696-17.424,14.934-17.424c8.238,0,14.913,7.804,14.913,17.424C125.706,306.023,119.031,313.801,110.793,313.801z"/>
			</g>
			<g>
				<path fill="#00B6FF" d="M55.911,277.782v1.584c-4.121-4.658-9.914-7.566-16.363-7.566c-12.521,0-22.677,10.972-22.677,24.513
					c0,13.549,10.159,24.529,22.677,24.529c6.455,0,12.242-2.916,16.363-7.57v2.912c0,6.283,9.187,6.25,9.187,0v-38.4
					C65.097,271.188,55.911,270.977,55.911,277.782z M39.548,314.146c-8.369,0-15.157-7.974-15.157-17.83
					c0-9.842,6.788-17.834,15.157-17.834c8.372,0,15.164,7.99,15.164,17.834C54.712,306.169,47.919,314.146,39.548,314.146z"/>
			</g>
			<path fill="#00B6FF" d="M164.942,280.886c0.03-1.195,0.048-2.353,0.048-3.22c0-5.926-8.539-6.092-8.539-0.166
				c0,4.197,0,36.157,0,39.482c0,5.313,8.676,4.866,8.676,0c0-3.173,0-16.38,0-25.871c0-14.935,29.679-18.129,29.679,0
				c0,10.563,0,22.987,0,25.871c0,5.09,9.17,5.313,9.17,0c0-3.056,0-0.78,0-25.871C203.987,265.773,169.064,269.482,164.942,280.886
				z"/>
			<path fill="#00B6FF" d="M80.631,315.418c0,7.218-9.555,7.208-9.555,0c0-9.154,0-62.225,0-69.486c0-4.595,9.555-5.537,9.555,0
				C80.631,251.458,80.631,308.184,80.631,315.418z"/>
			<g>
				<path fill="#00B6FF" d="M256.922,296.702c0-13.611-10.521-24.628-23.478-24.628c-12.947,0-23.473,11.008-23.473,24.628
					c0,13.602,13.148,24.184,24.52,24.219c6.026,0.023,14.879-1.056,18.67-6.801c3.486-4.183-0.449-10.457-5.14-4.93
					c-4.325,5.085-11.157,5.066-13.631,4.994c-7.042-0.207-14.284-5.396-15.784-13.406h37.941
					C256.788,299.441,256.922,298.077,256.922,296.702z M218.682,292.197c1.631-7.965,7.647-13.115,14.763-13.115
					c7.116,0,12.977,5.15,14.586,13.115H218.682z"/>
			</g>
			<g>
				<path fill="#00B6FF" d="M145.51,260.043c2.589,0,4.688,2.381,4.688,5.317s-2.099,5.313-4.688,5.313
					c-2.587,0-4.684-2.379-4.684-5.313C140.827,262.422,142.924,260.043,145.51,260.043z"/>
				<path fill="#00B6FF" d="M150.384,316.332c0,5.865-9.555,6.27-9.555,0c0-4.653,0-34.033,0-38.97c0-5.707,9.555-6.108,9.555,0
					C150.384,282.744,150.384,311.578,150.384,316.332z"/>
			</g>
		</g>
		<g>
			<g>
				<path fill="#00B6FF" d="M269.253,307.938c3.518,0,6.367,2.883,6.367,6.435c0,3.556-2.85,6.438-6.367,6.438
					c-3.516,0-6.364-2.882-6.364-6.438C262.889,310.82,265.737,307.938,269.253,307.938z"/>
				<path fill="#36A9E1" d="M273.288,314.343c0,2.096-1.81,3.792-4.039,3.792c-2.232,0-4.039-1.699-4.039-3.792
					c0-2.097,1.807-3.795,4.039-3.795C271.479,310.548,273.288,312.246,273.288,314.343z"/>
			</g>
			<g>
				<path fill="#FFFFFF" d="M273.806,317.079c-0.851,0-8.417,0-9.165,0s-0.645,1.12,0,1.12c0.212,0,1.196,0,2.447,0
					c-0.047,0.3,0.107,0.646,0.468,0.646c0.747,0,2.256,0,3.12,0c0.393,0,0.531-0.347,0.471-0.646c1.339,0,2.418,0,2.659,0
					C274.509,318.199,274.657,317.079,273.806,317.079z				">
				</path>
				<ellipse fill="#FFFFFF" cx="269.253" cy="310.783" rx="0.859" ry="0.882">
				
					<animate  fill="remove" attributeName="fill" from="black" to="white" dur="1s" begin="overlay.mouseover+.4" end="overlay.mouseout+.4" repeatCount="indefinite" accumulate="none" additive="replace" calcMode="linear" restart="always">
					</animate>
				</ellipse>
				<path fill="#FFFFFF" d="M267.689,313.802c0.746,0,2.256,0,3.121,0c0.695,0,0.59-1.085,0-1.085c-0.755,0-2.223,0-3.121,0
					C267.061,312.717,267.051,313.802,267.689,313.802z				">
				</path>
				<path fill="#FFFFFF" d="M266.201,316.035c0.38,0,5.573,0,6.138,0c0.755,0,0.755-1.174,0-1.174c-0.868,0-4.619,0-6.138,0
					C265.347,314.861,265.46,316.035,266.201,316.035z				">
				</path>
			</g>
		</g>
	</g>
</g>
</svg>
