<?xml version="1.0" encoding="utf-8"?>
<!-- Generator: Adobe Illustrator 16.0.0, SVG Export Plug-In . SVG Version: 6.00 Build 0)  -->
<!DOCTYPE svg PUBLIC "-//W3C//DTD SVG 1.1//EN" "http://www.w3.org/Graphics/SVG/1.1/DTD/svg11.dtd">
<svg version="1.1" id="Layer_2" xmlns="http://www.w3.org/2000/svg" xmlns:xlink="http://www.w3.org/1999/xlink" x="0px" y="0px"
	 width="425px" height="425px" viewBox="0 0 425 425" enable-background="new 0 0 425 425" xml:space="preserve">
<g>
	<g>
		<g>
			<path fill="#00B6FF" enable-background="new    " d="M212.499,86.708c41.875,0,75.821,33.292,75.821,74.357
				c0,41.071-33.946,74.362-75.821,74.362c-41.872,0-75.819-33.291-75.819-74.362C136.68,120,170.627,86.708,212.499,86.708z"/>
			<path fill="#36A9E1" d="M263.581,161.074c0,25.822-22.592,46.759-50.465,46.759c-27.881,0-50.468-20.938-50.468-46.759
				c0-25.831,22.597-46.771,50.468-46.771C240.999,114.303,263.581,135.238,263.581,161.074z"/>
		</g>
		<g>
			<path fill="#FFFFFF" d="M272.391,204.317l-6.602-14.213c-9.896,0-97.881,0-106.594,0l-6.586,14.213
				c2.473,0,20.84-0.049,35.385-0.049c-0.547,3.824,5.102,8.257,5.102,8.257c8.688,0,26.229,0,36.293,0c0,0,7.092-4.378,6.389-8.208
				C251.35,204.317,269.586,204.317,272.391,204.317z"/>
			<path fill="#FFFFFF" d="M230.014,134.738c-8.775,0-36.303,0-36.303,0l-5.717,13.773c8.695,0,37.725,0,47.783,0L230.014,134.738z"
				/>
			<path fill="#FFFFFF" d="M247.891,161.972c-10.109,0-53.709,0-71.381,0l-7.37,14.934c4.427,0,78.923,0,85.495,0L247.891,161.972z"
				/>
			<path fill="#FFFFFF" d="M221.08,121.231c0-6.418-4.377-11.622-9.775-11.622c-5.4,0-9.777,5.203-9.777,11.622h9.777H221.08z"/>
		</g>
	</g>
	<g>
		<g enable-background="new    ">
			<path fill="#00B6FF" d="M288.936,280.724c0.034-1.199,0.059-2.348,0.059-3.219c0-5.922-8.549-6.088-8.549-0.162
				c0,4.197,0,36.157,0,39.482c0,5.313,8.688,4.866,8.688,0c0-3.173,0-16.379,0-25.871c0-14.93,29.679-18.125,29.679,0
				c0,10.563,0,22.982,0,25.871c0,5.09,9.177,5.313,9.177,0c0-3.055,0-0.78,0-25.871
				C327.996,265.62,293.061,269.325,288.936,280.724z"/>
			<path fill="#00B6FF" d="M385.928,305.871c0,17.604,13.821,14.96,16.039,15.003c4.724-0.177,5.166-6.709-0.345-6.824
				c-5.165,0.115-6.111,1.259-6.6-11.49c0.03-7.717,0.074-23.588,0.074-23.588s2.199-0.072,6.893-0.072
				c4.687,0,5.34-6.754,0.112-6.754c-4.368,0-6.87-0.061-6.87-0.061s0-6.764,0-11.41c0-5.314-9.187-5.203-9.187-0.006
				c0,5.303,0.008,11.424,0.008,11.424s1.352-0.035-4.448-0.035c-5.811,0-5.592,6.84,0.065,6.84c4.798,0,4.25,0,4.25,0
				S385.928,297.942,385.928,305.871z"/>
			<g>
				<path fill="#00B6FF" d="M380.438,296.554c0-13.613-10.514-24.635-23.468-24.635c-12.956,0-23.472,11.016-23.472,24.635
					c0,13.599,13.147,24.185,24.515,24.218c6.029,0.03,14.882-1.046,18.672-6.794c3.486-4.185-0.449-10.464-5.138-4.936
					c-4.335,5.082-11.159,5.064-13.637,4.996c-7.035-0.208-14.28-5.4-15.778-13.409h37.938
					C380.304,299.292,380.438,297.93,380.438,296.554z M342.198,292.047c1.64-7.966,7.654-13.114,14.772-13.114
					c7.116,0,12.976,5.148,14.583,13.114H342.198z"/>
			</g>
		</g>
		<g enable-background="new    ">
			<g>
				<path fill="#00B6FF" d="M113.37,272.247c-6.331,0-12.051,2.785-16.179,7.283v-2.648c0-5.293-9.16-5.293-9.16,0v57.085
					c0,5.664,8.933,5.869,9.16,0v-20.351c4.13,4.493,9.848,7.272,16.179,7.272c12.521,0,22.688-10.884,22.688-24.33
					C136.061,283.138,125.891,272.247,113.37,272.247z M112.123,313.801c-8.238,0-14.934-7.777-14.934-17.417
					c0-9.621,6.696-17.424,14.934-17.424c8.238,0,14.913,7.803,14.913,17.424C127.036,306.023,120.361,313.801,112.123,313.801z"/>
			</g>
			<g>
				<path fill="#00B6FF" d="M58.272,277.782v1.584c-4.121-4.658-9.914-7.566-16.363-7.566c-12.521,0-22.677,10.971-22.677,24.512
					c0,13.55,10.159,24.53,22.677,24.53c6.455,0,12.242-2.916,16.363-7.571v2.913c0,6.283,9.187,6.249,9.187,0v-38.401
					C67.458,271.187,58.272,270.976,58.272,277.782z M41.909,314.146c-8.369,0-15.157-7.973-15.157-17.829
					c0-9.842,6.788-17.834,15.157-17.834c8.372,0,15.164,7.99,15.164,17.834C57.073,306.169,50.281,314.146,41.909,314.146z"/>
			</g>
			<path fill="#00B6FF" d="M165.125,280.728c0.03-1.195,0.048-2.352,0.048-3.219c0-5.926-8.539-6.092-8.539-0.166
				c0,4.197,0,36.157,0,39.482c0,5.313,8.676,4.866,8.676,0c0-3.173,0-16.379,0-25.871c0-14.934,29.679-18.129,29.679,0
				c0,10.563,0,22.987,0,25.871c0,5.09,9.17,5.313,9.17,0c0-3.055,0-0.78,0-25.871C204.17,265.616,169.247,269.325,165.125,280.728z
				"/>
			<path fill="#00B6FF" d="M82.522,315.418c0,7.218-9.555,7.208-9.555,0c0-9.154,0-62.224,0-69.487c0-4.594,9.555-5.537,9.555,0
				C82.522,251.458,82.522,308.183,82.522,315.418z"/>
			<g>
				<path fill="#00B6FF" d="M256.618,296.547c0-13.612-10.521-24.628-23.478-24.628c-12.946,0-23.472,11.008-23.472,24.628
					c0,13.601,13.148,24.183,24.519,24.219c6.027,0.023,14.879-1.056,18.67-6.801c3.487-4.183-0.449-10.457-5.139-4.93
					c-4.325,5.085-11.157,5.067-13.631,4.995c-7.042-0.208-14.284-5.397-15.784-13.407h37.941
					C256.484,299.286,256.618,297.922,256.618,296.547z M218.378,292.042c1.631-7.965,7.647-13.115,14.763-13.115
					c7.116,0,12.976,5.15,14.585,13.115H218.378z"/>
			</g>
			<g>
				<path fill="#00B6FF" d="M146.25,259.769c2.589,0,4.688,2.381,4.688,5.318c0,2.936-2.099,5.314-4.688,5.314
					c-2.587,0-4.684-2.379-4.684-5.314C141.567,262.149,143.664,259.769,146.25,259.769z"/>
				<path fill="#00B6FF" d="M151.124,316.058c0,5.866-9.555,6.27-9.555,0c0-4.653,0-34.033,0-38.969c0-5.707,9.555-6.109,9.555,0
					C151.124,282.47,151.124,311.304,151.124,316.058z"/>
			</g>
		</g>
		<g>
			<g>
				<path fill="#00B6FF" enable-background="new    " d="M268.636,307.11c3.517,0,6.367,3.06,6.367,6.836
					c0,3.775-2.851,6.837-6.367,6.837c-3.514,0-6.365-3.062-6.365-6.837C262.271,310.17,265.122,307.11,268.636,307.11z"/>
				<path fill="#36A9E1" d="M272.927,313.946c0,2.375-1.897,4.299-4.238,4.299s-4.237-1.924-4.237-4.299
					c0-2.373,1.896-4.297,4.237-4.297C271.03,309.649,272.927,311.571,272.927,313.946z"/>
			</g>
			<g>
				<path fill="#FFFFFF" d="M273.665,317.922l-0.555-1.305c-0.83,0-8.218,0-8.948,0l-0.554,1.305c0.208,0,1.75-0.003,2.971-0.003
					c-0.046,0.35,0.43,0.758,0.43,0.758c0.729,0,2.201,0,3.046,0c0,0,0.596-0.402,0.537-0.755
					C271.899,317.922,273.43,317.922,273.665,317.922z"/>
				<path fill="#FFFFFF" d="M270.107,311.528c-0.737,0-3.048,0-3.048,0l-0.48,1.263c0.73,0,3.168,0,4.013,0L270.107,311.528z"/>
				<path fill="#FFFFFF" d="M271.608,314.029c-0.85,0-4.51,0-5.993,0l-0.619,1.375c0.372,0,6.626,0,7.179,0L271.608,314.029z"/>
				<path fill="#FFFFFF" d="M269.357,310.282c0-0.587-0.368-1.065-0.822-1.065c-0.451,0-0.819,0.479-0.819,1.065h0.819H269.357z"/>
			</g>
		</g>
	</g>
</g>
</svg>
